<svg width="16" height="16" viewBox="0 0 16 16" fill="none" xmlns="http://www.w3.org/2000/svg">
<path d="M16 8C16 12.4183 12.4183 16 8 16C3.58175 16 0 12.4183 0 8C0 8.00187 8 0.00090625 8 0C12.4183 0 16 3.58175 16 8Z" fill="#0052B4"/>
<path d="M8 0C7.99956 0 7.99909 3.125e-05 7.99866 3.125e-05L8 0Z" fill="#F0F0F0"/>
<path d="M7.97859 8H8C8 7.99275 8 7.98581 8 7.97859C7.99288 7.98575 7.98575 7.99288 7.97859 8Z" fill="#F0F0F0"/>
<path d="M8 4.17394C8 2.76628 8 1.84387 8 3.125e-05H7.99866C3.581 0.00075 0 3.58216 0 8H4.17391V5.64962L6.52428 8H7.97859C7.98575 7.99288 7.99291 7.98575 8.00003 7.97859C8.00003 7.43963 8.00003 6.95872 8.00003 6.52434L5.64962 4.17394H8Z" fill="#F0F0F0"/>
<path d="M4.04734 1.04347C2.79612 1.75594 1.75594 2.79612 1.04347 4.04734V8H3.13044V3.13047L8 3.13044C8 2.47222 8 1.84516 8 1.04347H4.04734Z" fill="#D80027"/>
<path d="M8 7.01622L5.15772 4.17397H4.17394L7.99997 8H8C8 8 8 7.32172 8 7.01622Z" fill="#D80027"/>
<path d="M4.82484 9.39131L5.26391 10.3094L6.25537 10.0802L5.81138 10.9959L6.60869 11.6282L5.61597 11.8519L5.61875 12.8696L4.82484 12.2329L4.03097 12.8696L4.03375 11.8519L3.041 11.6282L3.83834 10.9959L3.39428 10.0802L4.38581 10.3094L4.82484 9.39131Z" fill="#F0F0F0"/>
<path d="M11.9776 11.1304L12.1972 11.5895L12.6929 11.4749L12.4709 11.9327L12.8696 12.2489L12.3732 12.3608L12.3746 12.8696L11.9776 12.5512L11.5807 12.8696L11.5821 12.3608L11.0857 12.2489L11.4844 11.9327L11.2624 11.4749L11.7581 11.5895L11.9776 11.1304Z" fill="#F0F0F0"/>
<path d="M9.93541 6.26088L10.1549 6.71994L10.6507 6.60531L10.4287 7.06316L10.8273 7.37931L10.331 7.49119L10.3323 8L9.93541 7.68166L9.53847 8L9.53981 7.49119L9.04347 7.37931L9.44213 7.06316L9.22013 6.60531L9.71587 6.71994L9.93541 6.26088Z" fill="#F0F0F0"/>
<path d="M11.9776 3.47825L12.1972 3.93731L12.6929 3.82272L12.4709 4.28056L12.8695 4.59669L12.3732 4.70859L12.3746 5.21741L11.9776 4.89906L11.5807 5.21741L11.5821 4.70859L11.0857 4.59669L11.4843 4.28056L11.2624 3.82272L11.7581 3.93731L11.9776 3.47825Z" fill="#F0F0F0"/>
<path d="M13.7615 5.56522L13.981 6.02428L14.4767 5.90966L14.2547 6.3675L14.6534 6.68366L14.157 6.79556L14.1584 7.30434L13.7615 6.98603L13.3646 7.30434L13.3659 6.79556L12.8696 6.68366L13.2682 6.3675L13.0462 5.90966L13.5419 6.02428L13.7615 5.56522Z" fill="#F0F0F0"/>
<path d="M12.4859 8L12.6586 8.53144H13.2174L12.7653 8.85991L12.938 9.39131L12.4859 9.06287L12.0339 9.39131L12.2065 8.85991L11.7545 8.53144H12.3132L12.4859 8Z" fill="#F0F0F0"/>
</svg>
